<svg width="21" height="21" viewBox="0 0 21 21" fill="none" xmlns="http://www.w3.org/2000/svg">
<path d="M14.875 9.62501H8.23375L11.1213 6.74626C11.2028 6.66468 11.2675 6.56782 11.3117 6.46123C11.3559 6.35463 11.3786 6.24039 11.3786 6.12501C11.3786 6.00963 11.3559 5.89539 11.3117 5.78879C11.2675 5.6822 11.2028 5.58534 11.1213 5.50376C11.0397 5.42218 10.9428 5.35746 10.8362 5.31331C10.7296 5.26915 10.6154 5.24643 10.5 5.24643C10.3846 5.24643 10.2704 5.26915 10.1638 5.31331C10.0572 5.35746 9.96033 5.42218 9.87875 5.50376L5.50375 9.87876C5.42409 9.96198 5.36165 10.0601 5.32 10.1675C5.23249 10.3805 5.23249 10.6195 5.32 10.8325C5.36165 10.9399 5.42409 11.038 5.50375 11.1213L9.87875 15.4963C9.96009 15.5783 10.0569 15.6434 10.1635 15.6878C10.2701 15.7322 10.3845 15.7551 10.5 15.7551C10.6155 15.7551 10.7299 15.7322 10.8365 15.6878C10.9431 15.6434 11.0399 15.5783 11.1213 15.4963C11.2033 15.4149 11.2684 15.3181 11.3128 15.2115C11.3572 15.1049 11.3801 14.9905 11.3801 14.875C11.3801 14.7595 11.3572 14.6451 11.3128 14.5385C11.2684 14.4319 11.2033 14.3351 11.1213 14.2538L8.23375 11.375H14.875C15.1071 11.375 15.3296 11.2828 15.4937 11.1187C15.6578 10.9546 15.75 10.7321 15.75 10.5C15.75 10.2679 15.6578 10.0454 15.4937 9.88129C15.3296 9.7172 15.1071 9.62501 14.875 9.62501Z" fill="#7C7C7C"/>
</svg>
