<svg width="38" height="38" viewBox="0 0 38 38" preserveAspectRatio="xMidYMin slice" fill="none" xmlns="http://www.w3.org/2000/svg">
<g clip-path="url(#clip0_1_18)">
<path d="M37.5419 19.472C37.0849 18.7356 36.3333 18.2269 35.4798 18.0765C34.6254 17.9261 33.746 18.1472 33.0582 18.6882L30.3533 20.8549C29.9063 20.3806 29.3147 20.0566 28.6631 19.9417C27.8096 19.7912 26.9294 20.0124 26.2466 20.5496L24.6585 21.8048H20.58C19.9282 21.8048 19.2766 21.6482 18.6958 21.352L17.2426 20.6105C16.0182 19.9858 14.6443 19.6835 13.2718 19.7365C11.3681 19.8097 9.54586 20.5585 8.14085 21.8451L0.310608 29.0147C-0.0564291 29.3508 -0.10438 29.9121 0.200155 30.3056L4.30019 35.6027C4.48756 35.8447 4.77008 35.9738 5.05716 35.9738C5.231 35.9738 5.40661 35.9264 5.56362 35.8281L10.4943 32.7448C10.8455 32.5252 11.2501 32.409 11.6645 32.409H23.1056C24.7304 32.409 26.3249 31.8515 27.5957 30.839L36.8501 23.4653C38.0596 22.5023 38.3567 20.7856 37.5419 19.472ZM27.4312 22.0518C27.6886 21.8491 28.0083 21.7689 28.331 21.8257C28.5254 21.86 28.701 21.9412 28.8481 22.0605L27.2483 23.3421C27.1058 23.075 26.9217 22.8336 26.7065 22.6244L27.4312 22.0518ZM35.6584 21.969L26.4037 29.3429C25.4704 30.0866 24.2992 30.4963 23.1057 30.4963H11.6645C10.891 30.4963 10.1356 30.7132 9.47995 31.1231L5.28325 33.7475L2.25194 29.831L9.43263 23.2559C10.504 22.275 11.8935 21.7039 13.3452 21.6481C14.3916 21.6076 15.4393 21.8384 16.3731 22.3146L17.8263 23.0561C18.675 23.4891 19.6272 23.7179 20.5797 23.7179H24.6922C25.2334 23.7179 25.6736 24.1582 25.6736 24.6995C25.6736 25.2189 25.2675 25.6493 24.749 25.6794L13.3052 26.3439C12.7777 26.3745 12.375 26.8268 12.4056 27.3542C12.4364 27.8815 12.8861 28.2837 13.416 28.2536L24.8598 27.5891C26.0568 27.5196 27.0508 26.7266 27.426 25.6507L34.2475 20.1864C34.5051 19.9837 34.8252 19.9033 35.1476 19.9603C35.4703 20.0171 35.7433 20.2018 35.9161 20.4804C36.22 20.9702 36.1093 21.6099 35.6584 21.969Z" fill="#373741"/>
<path d="M18.7957 16.6588C22.8299 16.6588 26.112 13.3768 26.112 9.34253C26.112 5.30829 22.8299 2.02621 18.7957 2.02621C14.7614 2.02621 11.4794 5.30816 11.4794 9.34253C11.4794 13.3769 14.7614 16.6588 18.7957 16.6588ZM18.7957 3.93921C21.7751 3.93921 24.199 6.36322 24.199 9.34253C24.199 12.322 21.775 14.7459 18.7957 14.7459C15.8162 14.7459 13.3923 12.3218 13.3923 9.34253C13.3923 6.36309 15.8164 3.93921 18.7957 3.93921Z" fill="#373741"/>
<path d="M18.6255 11.1014C18.3421 11.1014 18.0412 11.0323 17.7781 10.9068C17.6157 10.8293 17.4266 10.8246 17.2596 10.8935C17.0895 10.9636 16.9566 11.1031 16.8947 11.2756L16.8689 11.3476C16.7588 11.6556 16.8947 11.9968 17.1853 12.1414C17.4547 12.2755 17.7843 12.3724 18.1213 12.4175V12.691C18.1213 13.0469 18.4109 13.3364 18.7756 13.3364C19.1316 13.3364 19.4211 13.0468 19.4211 12.691V12.342C20.2703 12.0855 20.8151 11.3877 20.8151 10.5469C20.8151 9.38845 19.9605 8.89135 19.2177 8.58846C18.4137 8.25571 18.3534 8.11021 18.3534 7.92625C18.3534 7.68409 18.5639 7.53935 18.9168 7.53935C19.1752 7.53935 19.408 7.58566 19.6291 7.68118C19.7901 7.75064 19.9684 7.75114 20.1308 7.68232C20.2928 7.61362 20.4215 7.48001 20.4838 7.31528L20.5096 7.24683C20.6324 6.92294 20.4808 6.56236 20.1648 6.42609C19.9527 6.33462 19.7207 6.2706 19.4739 6.2353V5.9939C19.4739 5.63799 19.1843 5.34839 18.8284 5.34839C18.4725 5.34839 18.1831 5.63799 18.1831 5.9939V6.3164C17.3593 6.56552 16.8508 7.21723 16.8508 8.03215C16.8508 9.09758 17.7061 9.57671 18.5388 9.90326C19.2447 10.1895 19.3037 10.4173 19.3037 10.6085C19.3035 10.9724 18.9384 11.1014 18.6255 11.1014Z" fill="#373741"/>
</g>
<defs>
<clipPath id="clip0_1_18">
<rect width="38" height="38" fill="white"/>
</clipPath>
</defs>
</svg>
