<svg width="38" height="33" viewBox="0 0 38 33" fill="none" xmlns="http://www.w3.org/2000/svg">
<g clip-path="url(#clip0_40_178)">
<path d="M17.5152 30.671C16.7037 29.8116 14.6773 28.1361 13.0121 26.9477C8.07833 23.4265 7.40685 22.9169 5.40364 21.1737C1.7106 17.96 0.142222 14.7312 0.147597 10.3533C0.150219 8.2162 0.304355 7.39283 0.937637 6.13311C2.01205 3.99588 3.59471 2.40776 5.61814 1.43645C7.05126 0.748506 7.75807 0.442865 10.1513 0.430361C12.6548 0.417286 13.1818 0.693144 14.6544 1.45772C16.4469 2.38833 18.2918 4.37721 18.6732 5.79003L18.9087 6.66263L19.4896 5.46085C22.7721 -1.33031 33.252 -1.22871 36.8991 5.62965C38.056 7.80531 38.183 12.4509 37.1571 15.0677C35.8188 18.4813 33.3053 21.0837 27.4947 25.0717C23.6841 27.6871 19.3713 31.6442 19.071 32.2C18.7225 32.8452 19.0544 32.3011 17.5152 30.671Z" fill="#FF0000"/>
</g>
<defs>
<clipPath id="clip0_40_178">
<rect width="38" height="32.5714" fill="white"/>
</clipPath>
</defs>
</svg>
