<svg width="41" height="32" viewBox="0 0 41 32" fill="none" xmlns="http://www.w3.org/2000/svg">
<path d="M19.6502 4.20308C19.5066 4.20307 19.3676 4.25454 19.2584 4.34823C19.1492 4.44192 19.0768 4.57167 19.0544 4.71414L18.0641 11.0183L17.1543 16.8111L17.1537 16.8159L17.1548 16.8111L18.0647 11.0183C18.1109 10.7239 18.3634 10.5072 18.6602 10.5072H21.5612C24.4808 10.5072 26.9588 8.36868 27.4114 5.47075C27.4459 5.25058 27.4643 5.03249 27.4685 4.81728V4.81695H27.4682C26.7262 4.42612 25.8549 4.20308 24.9003 4.20308H19.6502Z" fill="#001C64"/>
<path d="M27.4683 4.81707C27.4642 5.03228 27.4455 5.25058 27.4111 5.47076C26.9586 8.36869 24.4806 10.5073 21.561 10.5073H18.66C18.3632 10.5073 18.1107 10.7239 18.0645 11.0183L17.1546 16.8111L16.5836 20.4454C16.5726 20.5157 16.5769 20.5874 16.5962 20.6558C16.6154 20.7242 16.6492 20.7876 16.6952 20.8416C16.7412 20.8956 16.7983 20.939 16.8626 20.9687C16.9269 20.9984 16.9968 21.0139 17.0676 21.0139H20.2165C20.3602 21.0139 20.4991 20.9624 20.6083 20.8687C20.7176 20.775 20.7899 20.6453 20.8123 20.5028L21.6418 15.2211C21.6883 14.9267 21.9409 14.7097 22.2377 14.7097H24.0918C27.0114 14.7097 29.4891 12.5713 29.9417 9.67354C30.2629 7.61638 29.2318 5.74499 27.4683 4.81707Z" fill="#0070E0"/>
<path d="M16.0727 0C15.929 4.49484e-06 15.79 0.0515235 15.6808 0.145279C15.5715 0.239035 15.4992 0.368867 15.4769 0.511395L13.006 16.2424C12.995 16.3126 12.9992 16.3844 13.0184 16.4528C13.0377 16.5212 13.0715 16.5847 13.1175 16.6387C13.1635 16.6928 13.2206 16.7362 13.2849 16.7659C13.3492 16.7957 13.4192 16.8111 13.49 16.8111H17.1543L18.0641 11.0183L19.0544 4.71417C19.0768 4.57171 19.1491 4.44195 19.2584 4.34826C19.3676 4.25458 19.5065 4.2031 19.6502 4.20311H24.9C25.8549 4.20311 26.7262 4.42649 27.4682 4.81676C27.5188 2.1785 25.3505 0 22.3689 0H16.0727Z" fill="#003087"/>
<g clip-path="url(#clip0_56_254)">
<path d="M4.91999 21.0007H1.731C1.51274 21.0007 1.32717 21.1604 1.29312 21.3773L0.00334115 29.6104C-0.0223115 29.7727 0.102684 29.9193 0.266328 29.9193H1.7888C2.00702 29.9193 2.19259 29.7597 2.22665 29.5423L2.5745 27.3217C2.60809 27.1043 2.79412 26.9447 3.01188 26.9447H4.02143C6.12209 26.9447 7.33445 25.9212 7.6511 23.8931C7.79377 23.0058 7.65715 22.3087 7.24446 21.8204C6.79123 21.2843 5.98733 21.0007 4.91999 21.0007ZM5.28791 24.0077C5.11351 25.1598 4.23919 25.1598 3.39379 25.1598H2.91258L3.25017 23.0082C3.27024 22.8782 3.38212 22.7824 3.5127 22.7824H3.73324C4.30911 22.7824 4.85238 22.7824 5.13307 23.1129C5.30049 23.3101 5.35179 23.603 5.28791 24.0077Z" fill="#283B82"/>
<path d="M14.4524 23.9706H12.9254C12.7953 23.9706 12.6829 24.0664 12.6628 24.1964L12.5953 24.6265L12.4885 24.4706C12.1579 23.9875 11.4206 23.826 10.6848 23.826C8.99728 23.826 7.55595 25.1128 7.27525 26.9179C7.12931 27.8184 7.33681 28.6794 7.84413 29.2798C8.30949 29.8319 8.97535 30.0619 9.76764 30.0619C11.1274 30.0619 11.8814 29.1817 11.8814 29.1817L11.8133 29.6089C11.7876 29.7723 11.9126 29.9188 12.0754 29.9188H13.4508C13.6696 29.9188 13.8542 29.7592 13.8887 29.5418L14.7141 24.2795C14.7402 24.1175 14.6157 23.9706 14.4524 23.9706ZM12.3238 26.963C12.1765 27.8414 11.484 28.4311 10.6009 28.4311C10.1575 28.4311 9.80305 28.2879 9.57548 28.0165C9.3498 27.747 9.26399 27.3635 9.33582 26.9362C9.47336 26.0654 10.1775 25.4565 11.0471 25.4565C11.4808 25.4565 11.8333 25.6016 12.0655 25.8752C12.2982 26.1517 12.3905 26.5377 12.3238 26.963Z" fill="#283B82"/>
<path d="M22.5856 23.9706H21.0511C20.9046 23.9706 20.7671 24.0439 20.6841 24.1664L18.5675 27.3053L17.6704 24.2889C17.614 24.1002 17.441 23.9706 17.2452 23.9706H15.7372C15.5539 23.9706 15.4266 24.1509 15.4849 24.3246L17.1752 29.3188L15.5861 31.5774C15.4611 31.7553 15.5869 32 15.8029 32H17.3356C17.4811 32 17.6173 31.9286 17.6998 31.8084L22.8038 24.3908C22.926 24.2133 22.8006 23.9706 22.5856 23.9706Z" fill="#283B82"/>
<path d="M27.6664 21.0007H24.4769C24.2592 21.0007 24.0736 21.1604 24.0395 21.3773L22.7497 29.6104C22.7241 29.7727 22.8491 29.9193 23.0118 29.9193H24.6485C24.8005 29.9193 24.9307 29.8076 24.9544 29.6554L25.3204 27.3217C25.354 27.1043 25.5401 26.9447 25.7578 26.9447H26.7669C28.868 26.9447 30.08 25.9212 30.397 23.8931C30.5402 23.0058 30.4027 22.3087 29.99 21.8204C29.5372 21.2843 28.7338 21.0007 27.6664 21.0007ZM28.0343 24.0077C27.8604 25.1598 26.9861 25.1598 26.1402 25.1598H25.6595L25.9976 23.0082C26.0176 22.8782 26.1285 22.7824 26.2596 22.7824H26.4801C27.0556 22.7824 27.5993 22.7824 27.8799 23.1129C28.0474 23.3101 28.0982 23.603 28.0343 24.0077Z" fill="#469BDB"/>
<path d="M37.1985 23.9706H35.6723C35.5412 23.9706 35.4297 24.0664 35.4102 24.1964L35.3426 24.6265L35.2354 24.4706C34.9048 23.9875 34.168 23.826 33.4322 23.826C31.7446 23.826 30.3038 25.1128 30.023 26.9179C29.8776 27.8184 30.0841 28.6794 30.5915 29.2798C31.0578 29.8319 31.7227 30.0619 32.5149 30.0619C33.8747 30.0619 34.6287 29.1817 34.6287 29.1817L34.5606 29.6089C34.535 29.7723 34.6599 29.9188 34.8236 29.9188H36.1987C36.4165 29.9188 36.6021 29.7592 36.6361 29.5418L37.4619 24.2795C37.487 24.1175 37.3621 23.9706 37.1985 23.9706ZM35.0698 26.963C34.9234 27.8414 34.23 28.4311 33.3469 28.4311C32.9043 28.4311 32.549 28.2879 32.3214 28.0165C32.0958 27.747 32.0109 27.3635 32.0818 26.9362C32.2202 26.0654 32.9235 25.4565 33.7931 25.4565C34.2268 25.4565 34.5792 25.6016 34.8115 25.8752C35.0451 26.1517 35.1374 26.5377 35.0698 26.963Z" fill="#469BDB"/>
<path d="M38.9988 21.2266L37.6899 29.6104C37.6643 29.7727 37.7892 29.9193 37.952 29.9193H39.2678C39.4866 29.9193 39.6722 29.7597 39.7058 29.5423L40.9964 21.3097C41.0221 21.1472 40.8972 21.0003 40.7344 21.0003H39.2608C39.1308 21.0007 39.0189 21.0966 38.9988 21.2266Z" fill="#469BDB"/>
</g>
<defs>
<clipPath id="clip0_56_254">
<rect width="41" height="11" fill="white" transform="translate(0 21)"/>
</clipPath>
</defs>
</svg>
